<svg width="57" height="81" viewBox="0 0 57 81" fill="none" xmlns="http://www.w3.org/2000/svg">
<path d="M49.491 80.3948H6.73603C3.0196 80.3948 0 77.1822 0 73.2369V7.15783C0 3.21257 3.0196 0 6.73603 0H49.491C53.2074 0 56.227 3.21257 56.227 7.15783V73.2369C56.227 77.1822 53.2074 80.3948 49.491 80.3948ZM6.73603 3.84059C5.01398 3.84059 3.61231 5.33013 3.61231 7.15783V73.2369C3.61231 75.0646 5.01398 76.5542 6.73603 76.5542H49.491C51.2131 76.5542 52.6147 75.0646 52.6147 73.2369V7.15783C52.6147 5.33013 51.2131 3.84059 49.491 3.84059H6.73603Z" fill="#E86850"/>
<path d="M26.2392 50.1933C26.095 50.1933 25.9589 50.1772 25.8147 50.145C24.8055 49.9115 24.1728 48.897 24.413 47.8825L28.1615 31.5378C28.3938 30.5233 29.411 29.8953 30.4122 30.1208C31.4214 30.3542 32.0542 31.3687 31.8139 32.3832L28.0654 48.7279C27.8652 49.6055 27.0962 50.1933 26.2392 50.1933Z" fill="#E86850"/>
<path d="M36.2432 47.6812C35.7305 47.6812 35.2179 47.4718 34.8495 47.0612C34.1607 46.2883 34.2167 45.0966 34.9857 44.3962L39.6873 40.1449L34.9857 35.8937C34.2167 35.2013 34.1527 34.0016 34.8495 33.2287C35.5463 32.4557 36.7317 32.3913 37.5007 33.0918L43.7561 38.752C44.1486 39.1143 44.3728 39.6216 44.3728 40.153C44.3728 40.6844 44.1486 41.1997 43.7561 41.554L37.5007 47.2142C37.1402 47.5202 36.6917 47.6812 36.2432 47.6812Z" fill="#E86850"/>
<path d="M19.9838 47.6812C19.5353 47.6812 19.0867 47.5202 18.7263 47.1982L12.4709 41.5379C12.0784 41.1756 11.8541 40.6684 11.8541 40.137C11.8541 39.6056 12.0784 39.0903 12.4709 38.736L18.7263 33.0758C19.4952 32.3833 20.6806 32.4397 21.3775 33.2126C22.0663 33.9856 22.0102 35.1772 21.2413 35.8777L16.5397 40.137L21.2413 44.3882C22.0102 45.0806 22.0743 46.2803 21.3775 47.0532C21.009 47.4719 20.4964 47.6812 19.9838 47.6812Z" fill="#E86850"/>
<path d="M38.0532 8.73604H18.1735C17.4126 8.73604 16.7959 8.11607 16.7959 7.35118C16.7959 6.58628 17.4126 5.96631 18.1735 5.96631H38.0532C38.8141 5.96631 39.4309 6.58628 39.4309 7.35118C39.4309 8.11607 38.8141 8.73604 38.0532 8.73604Z" fill="#E86850"/>
<path d="M28.1134 75.6122C29.3652 75.6122 30.3801 74.5921 30.3801 73.3336C30.3801 72.0752 29.3652 71.0551 28.1134 71.0551C26.8615 71.0551 25.8467 72.0752 25.8467 73.3336C25.8467 74.5921 26.8615 75.6122 28.1134 75.6122Z" fill="#E86850"/>
</svg>
