<svg width="80" height="80" viewBox="0 0 80 80" fill="none" xmlns="http://www.w3.org/2000/svg">
<path d="M54.0305 30.6202V35.3101C54.0305 35.6541 53.7498 35.9348 53.4057 35.9348H21.7137C21.2971 35.9348 20.8987 36.0978 20.609 36.3965L16.9236 40.0815V37.5011C16.9236 36.641 16.2264 35.9348 15.3571 35.9348H12.1789C11.8348 35.9348 11.5541 35.6541 11.5541 35.3101V10.6202C11.5541 10.2762 11.8348 9.99548 12.1789 9.99548H38.429V24.373C38.429 27.8225 41.236 30.6202 44.6768 30.6202H54.0305Z" fill="#FFFEFE"/>
<path d="M76.8851 6.24748V24.3733C76.8851 26.0935 75.4816 27.4969 73.7612 27.4969H44.695C42.9746 27.4969 41.5711 26.0935 41.5711 24.3733V6.24748C41.5711 4.52725 42.9746 3.1239 44.695 3.1239H73.7612C75.4816 3.1239 76.8851 4.52725 76.8851 6.24748Z" fill="#FFFEFE"/>
<path d="M39.2801 67.6233C38.9903 67.3335 38.5828 67.1615 38.1754 67.1615C37.7679 67.1615 37.3604 67.3245 37.0707 67.6233C36.7809 67.9131 36.6089 68.3205 36.6089 68.728C36.6089 69.1445 36.7719 69.5429 37.0707 69.8327C37.3604 70.1224 37.7679 70.2945 38.1754 70.2945C38.5828 70.2945 38.9903 70.1315 39.2801 69.8327C39.5698 69.5429 39.7419 69.1355 39.7419 68.728C39.7328 68.3115 39.5698 67.9131 39.2801 67.6233Z" fill="#E86850"/>
<path d="M46.7232 53.2096V41.7112C46.7232 41.1951 46.4697 40.7062 46.035 40.4165C45.6004 40.1268 45.0571 40.0724 44.5772 40.2626L17.648 51.1091H8.97339C4.02037 51.1091 0 55.1381 0 60.0815C0 65.0339 4.02942 69.0538 8.97339 69.0538H10.0056V78.4336C10.0056 79.2938 10.7029 80 11.5721 80H17.9558C18.816 80 19.5223 79.3028 19.5223 78.4336V69.8053L44.5863 79.8823C44.7764 79.9547 44.9756 79.9909 45.1658 79.9909C45.4736 79.9909 45.7815 79.9004 46.0441 79.7193C46.4787 79.4296 46.7323 78.9407 46.7323 78.4246V66.9262C49.8652 66.2109 52.2105 63.4042 52.2105 60.0634C52.2014 56.7225 49.8562 53.9158 46.7232 53.2096ZM16.3803 76.8764H13.1296V69.0538H16.3803V76.8764ZM16.3803 65.9303H8.96433C5.7408 65.9303 3.11488 63.3046 3.11488 60.0815C3.11488 56.8583 5.7408 54.2327 8.96433 54.2327H16.3803V65.9303ZM43.5902 76.1249L19.5042 66.4373V53.7257L36.5998 46.8357V62.3449C36.5998 63.2051 37.2971 63.9113 38.1663 63.9113C39.0265 63.9113 39.7328 63.2141 39.7328 62.3449V45.5772L43.5902 44.0199V76.1249ZM46.7232 63.6668V56.4871C48.1086 57.0937 49.0775 58.4699 49.0775 60.0815C49.0775 61.675 48.0995 63.0602 46.7232 63.6668Z" fill="#E86850"/>
<path d="M49.0775 60.0725C49.0775 61.675 48.1086 63.0603 46.7232 63.6669V56.4872C48.0995 57.0847 49.0775 58.47 49.0775 60.0725Z" fill="#FFFEFE"/>
<path d="M16.3893 54.2324V65.93H8.97338C5.74984 65.93 3.12392 63.3044 3.12392 60.0812C3.12392 56.858 5.74984 54.2324 8.97338 54.2324H16.3893Z" fill="#FFFEFE"/>
<path d="M43.5903 44.0198V76.1157L19.5043 66.4281V53.7255L36.5999 46.8355V62.3448C36.5999 63.2049 37.2971 63.9111 38.1664 63.9111C39.0266 63.9111 39.7329 63.214 39.7329 62.3448V45.577L43.5903 44.0198Z" fill="#FFFEFE"/>
<path d="M67.1059 58.5604H58.2592C57.399 58.5604 56.6927 59.2577 56.6927 60.1269C56.6927 60.9962 57.39 61.6934 58.2592 61.6934H67.1059C67.9661 61.6934 68.6724 60.9962 68.6724 60.1269C68.6724 59.2577 67.9751 58.5604 67.1059 58.5604Z" fill="#E86850"/>
<path d="M59.8528 47.1072C59.2461 46.5006 58.2501 46.5006 57.6434 47.1072L54.5919 50.1583C53.9852 50.765 53.9852 51.7609 54.5919 52.3675C54.8998 52.6753 55.2982 52.8292 55.6966 52.8292C56.095 52.8292 56.4934 52.6753 56.8013 52.3675L59.8528 49.3163C60.4595 48.7097 60.4595 47.7138 59.8528 47.1072Z" fill="#E86850"/>
<path d="M59.9705 70.774L56.8194 67.6233C56.2127 67.0167 55.2167 67.0167 54.61 67.6233C54.0034 68.2299 54.0034 69.2258 54.61 69.8324L57.7611 72.9832C58.069 73.291 58.4674 73.4449 58.8658 73.4449C59.2642 73.4449 59.6626 73.291 59.9705 72.9832C60.5772 72.3766 60.5772 71.3897 59.9705 70.774Z" fill="#E86850"/>
<path d="M73.752 0H44.6859C41.236 0 38.438 2.8067 38.438 6.24716V6.87188H12.1879C10.1234 6.87188 8.43917 8.5559 8.43917 10.6202V35.3101C8.43917 37.3743 10.1234 39.0584 12.1879 39.0584H13.7997V43.8478C13.7997 44.4816 14.18 45.052 14.7685 45.2874C14.9587 45.3689 15.1669 45.4051 15.3662 45.4051C15.7736 45.4051 16.172 45.2421 16.4709 44.9434L22.3656 39.0493H53.4057C55.4702 39.0493 57.1544 37.3653 57.1544 35.301V30.6111H73.752C77.202 30.6111 79.9999 27.8044 79.9999 24.3639V6.24716C80.009 2.79764 77.202 0 73.752 0ZM54.0305 35.3101C54.0305 35.6541 53.7498 35.9348 53.4057 35.9348H21.7136C21.2971 35.9348 20.8987 36.0977 20.6089 36.3965L16.9236 40.0814V37.5011C16.9236 36.641 16.2264 35.9348 15.3571 35.9348H12.1788C11.8348 35.9348 11.554 35.6541 11.554 35.3101V10.6202C11.554 10.2761 11.8348 9.99546 12.1788 9.99546H38.4289V24.373C38.4289 27.8225 41.236 30.6202 44.6768 30.6202H54.0305V35.3101ZM76.885 24.373C76.885 26.0932 75.4815 27.4966 73.7611 27.4966H44.6949C42.9745 27.4966 41.571 26.0932 41.571 24.373V6.24716C41.571 4.52693 42.9745 3.12358 44.6949 3.12358H73.7611C75.4815 3.12358 76.885 4.52693 76.885 6.24716V24.373Z" fill="#E86850"/>
<path d="M65.5031 13.952L54.8093 7.77727C54.3294 7.49661 53.7318 7.49661 53.2428 7.77727C52.7629 8.05794 52.4641 8.57402 52.4641 9.1263V21.4758C52.4641 22.0371 52.7629 22.5532 53.2428 22.8248C53.4873 22.9606 53.7499 23.033 54.0216 23.033C54.2932 23.033 54.5648 22.9606 54.8003 22.8248L65.4941 16.6501C65.974 16.3694 66.2728 15.8533 66.2728 15.301C66.2819 14.7487 65.9831 14.2327 65.5031 13.952ZM55.588 18.7777V11.8425L61.5914 15.3101L55.588 18.7777Z" fill="#E86850"/>
<path d="M33.5211 16.4056H17.8924C17.0322 16.4056 16.3259 17.1029 16.3259 17.9721C16.3259 18.8323 17.0232 19.5386 17.8924 19.5386H33.5211C34.3814 19.5386 35.0876 18.8414 35.0876 17.9721C35.0786 17.1029 34.3814 16.4056 33.5211 16.4056Z" fill="#E86850"/>
<path d="M34.6259 25.6135C34.3361 25.3238 33.9287 25.1517 33.5212 25.1517C33.1137 25.1517 32.7063 25.3147 32.4165 25.6135C32.1268 25.9033 31.9547 26.3108 31.9547 26.7182C31.9547 27.1257 32.1177 27.5332 32.4165 27.8229C32.7063 28.1127 33.1137 28.2847 33.5212 28.2847C33.9377 28.2847 34.3361 28.1217 34.6259 27.8229C34.9157 27.5332 35.0877 27.1257 35.0877 26.7182C35.0877 26.3108 34.9157 25.9033 34.6259 25.6135Z" fill="#E86850"/>
<path d="M27.6536 25.1517H17.8924C17.0322 25.1517 16.3259 25.849 16.3259 26.7182C16.3259 27.5875 17.0232 28.2847 17.8924 28.2847H27.6536C28.5138 28.2847 29.2201 27.5875 29.2201 26.7182C29.2201 25.849 28.5229 25.1517 27.6536 25.1517Z" fill="#E86850"/>
</svg>
