<svg width="72" height="75" viewBox="0 0 72 75" fill="none" xmlns="http://www.w3.org/2000/svg">
<path d="M41.0203 75H30.6216C28.0821 75 25.9182 73.2658 25.3622 70.7808L24.0398 64.9249C21.8909 64.0165 19.8473 62.8303 17.9238 61.3814L12.2286 63.1832C9.77915 63.9339 7.12688 62.9054 5.89467 60.7207L0.710346 51.7568C-0.529383 49.5345 -0.108627 46.8018 1.71716 45.0826L6.1351 41.0285C5.99986 39.8423 5.93223 38.6562 5.93223 37.5C5.93223 36.3438 5.99986 35.1577 6.1351 33.9715L1.7397 29.9324C-0.108627 28.1982 -0.529383 25.4655 0.695319 23.2733L5.90969 14.2568C7.12688 12.1021 9.77915 11.0586 12.221 11.8168L17.9238 13.6111C19.8397 12.1622 21.8909 10.976 24.0398 10.0676L25.3622 4.21171C25.9182 1.73423 28.0821 0 30.6216 0H41.0278C43.5674 0 45.7313 1.73423 46.2873 4.21922L47.6097 10.0751C49.7585 10.9835 51.8022 12.1697 53.7257 13.6186L59.4284 11.8243C61.8703 11.0586 64.5301 12.1021 65.7623 14.2868L70.9466 23.2507C72.1864 25.473 71.7656 28.2057 69.9398 29.9249L65.5219 33.979C65.6571 35.1652 65.7247 36.3514 65.7247 37.5075C65.7247 38.6637 65.6571 39.8499 65.5219 41.036L69.9173 45.0751C69.9248 45.0826 69.9323 45.0901 69.9323 45.0901C71.7656 46.8093 72.1864 49.542 70.9541 51.7342L65.7398 60.7508C64.5226 62.9054 61.8703 63.949 59.4284 63.1907L53.7182 61.3889C51.8022 62.8378 49.751 64.024 47.6022 64.9324L46.2798 70.7883C45.7238 73.2658 43.5599 75 41.0203 75ZM18.4122 56.4339C18.9531 56.4339 19.4791 56.6216 19.9074 56.967C22.0487 58.7312 24.3929 60.0901 26.8799 61.006C27.6237 61.2838 28.1797 61.9144 28.3601 62.6877L29.9529 69.7523C30.0281 70.0751 30.3136 70.3078 30.6367 70.3078H41.0429C41.3659 70.3078 41.6515 70.0751 41.7266 69.7523L43.3195 62.6877C43.4923 61.9144 44.0483 61.2763 44.7996 61.006C47.2791 60.0901 49.6233 58.7237 51.7722 56.967C52.3883 56.464 53.2072 56.2988 53.9736 56.539L60.856 58.7087C61.1791 58.8063 61.5322 58.6937 61.6825 58.4159L66.8969 49.3994C67.0546 49.1216 66.9945 48.7387 66.7466 48.4985L61.4646 43.6487C60.886 43.1231 60.6156 42.3423 60.7358 41.5766C60.9386 40.2027 61.0513 38.8288 61.0513 37.4925C61.0513 36.1562 60.9462 34.7823 60.7358 33.4084C60.6231 32.6351 60.8936 31.8619 61.4646 31.3363L66.7541 26.4715C66.9945 26.2462 67.0546 25.8634 66.8818 25.5556L61.6975 16.5916C61.5322 16.2913 61.1941 16.1787 60.8485 16.2763L53.9736 18.4459C53.2072 18.6862 52.3883 18.521 51.7722 18.018C49.6308 16.2538 47.2866 14.8949 44.7996 13.979C44.0558 13.7012 43.4998 13.0706 43.3195 12.2973L41.7266 5.23273C41.6439 4.91742 41.3584 4.67718 41.0354 4.67718H30.6216C30.2985 4.67718 30.013 4.90991 29.9379 5.23273L28.345 12.2973C28.1722 13.0706 27.6162 13.7012 26.8724 13.979C24.3929 14.8949 22.0487 16.2538 19.8998 18.018C19.2837 18.521 18.4648 18.6862 17.6984 18.4459L10.816 16.2763C10.4929 16.1787 10.1398 16.2913 9.98953 16.5691L4.77516 25.5781C4.61737 25.8559 4.67748 26.2462 4.93294 26.4865L10.2074 31.3288C10.786 31.8544 11.0564 32.6351 10.9362 33.4009C10.7334 34.7748 10.6207 36.1486 10.6207 37.485C10.6207 38.8213 10.7259 40.1952 10.9362 41.5691C11.0489 42.3423 10.7785 43.1156 10.2074 43.6411L4.91791 48.506C4.67748 48.7312 4.61737 49.1141 4.79018 49.4219L9.9745 58.3859C10.1473 58.6862 10.4854 58.8063 10.8235 58.7012L17.6984 56.5315C17.9313 56.464 18.1717 56.4339 18.4122 56.4339Z" fill="#E86850"/>
<path d="M33.4768 49.9925C33.2964 49.9925 33.1236 49.9774 32.9433 49.9324C31.681 49.6396 30.8921 48.3783 31.1851 47.1246L35.8811 26.8093C36.1741 25.5405 37.4514 24.7672 38.6912 25.0525C39.9534 25.3453 40.7423 26.6066 40.4493 27.8603L35.7534 48.1756C35.5054 49.2642 34.5437 49.9925 33.4768 49.9925Z" fill="#E86850"/>
<path d="M45.9868 46.8693C45.3481 46.8693 44.7095 46.6066 44.2436 46.0961C43.3796 45.1351 43.4547 43.6486 44.4164 42.7852L50.2995 37.5L44.4164 32.2147C43.4547 31.3513 43.3721 29.8648 44.2436 28.9039C45.1152 27.9429 46.5954 27.8678 47.5571 28.7312L55.3787 35.7657C55.8745 36.2162 56.1525 36.8468 56.1525 37.5075C56.1525 38.1681 55.8745 38.8063 55.3787 39.2492L47.5571 46.2837C47.1063 46.6741 46.5503 46.8693 45.9868 46.8693Z" fill="#E86850"/>
<path d="M25.6552 46.8694C25.0917 46.8694 24.5357 46.6743 24.0849 46.2689L16.2633 39.2343C15.7674 38.7839 15.4894 38.1532 15.4894 37.4926C15.4894 36.8319 15.7674 36.1938 16.2633 35.7508L24.0849 28.7163C25.0466 27.8529 26.5268 27.928 27.3983 28.889C28.2624 29.8499 28.1872 31.3364 27.2255 32.1998L21.3424 37.4926L27.2255 42.7779C28.1872 43.6412 28.2699 45.1277 27.3983 46.0887C26.9325 46.6067 26.2938 46.8694 25.6552 46.8694Z" fill="#E86850"/>
</svg>
